<svg width="59" height="58" viewBox="0 0 59 58" fill="none" xmlns="http://www.w3.org/2000/svg">
<g opacity="0.2">
<path d="M23.2164 41.2571L20.475 46.6946C20.2986 47.0654 19.9986 47.3632 19.6265 47.5368C19.2544 47.7105 18.8334 47.7491 18.4359 47.6462C12.8852 46.2868 8.08203 43.9305 4.59297 40.8946C4.32992 40.6625 4.1389 40.3599 4.04253 40.0226C3.94616 39.6853 3.94848 39.3275 4.04922 38.9915L11.7297 13.3446C11.8044 13.0821 11.9397 12.8409 12.1247 12.6402C12.3096 12.4395 12.539 12.285 12.7945 12.1891C14.9645 11.2989 17.2085 10.6014 19.5008 10.1047C19.9413 10.0083 20.4019 10.0774 20.7947 10.2988C21.1875 10.5203 21.485 10.8787 21.6305 11.3055L23.4203 16.7204C27.3437 16.1766 31.3234 16.1766 35.2469 16.7204L37.0367 11.3055C37.1822 10.8787 37.4797 10.5203 37.8725 10.2988C38.2653 10.0774 38.7259 10.0083 39.1664 10.1047C41.4587 10.6014 43.7027 11.2989 45.8727 12.1891C46.1282 12.285 46.3576 12.4395 46.5425 12.6402C46.7275 12.8409 46.8628 13.0821 46.9375 13.3446L54.618 38.9915C54.7187 39.3275 54.721 39.6853 54.6247 40.0226C54.5283 40.3599 54.3373 40.6625 54.0742 40.8946C50.5852 43.9305 45.782 46.2868 40.2313 47.6462C39.8338 47.7491 39.4128 47.7105 39.0407 47.5368C38.6686 47.3632 38.3686 47.0654 38.1922 46.6946L35.4508 41.2571C33.4242 41.5421 31.3802 41.6859 29.3336 41.6876C27.287 41.6859 25.243 41.5421 23.2164 41.2571Z" fill="#4B465C"/>
<path d="M23.2164 41.2571L20.475 46.6946C20.2986 47.0654 19.9986 47.3632 19.6265 47.5368C19.2544 47.7105 18.8334 47.7491 18.4359 47.6462C12.8852 46.2868 8.08203 43.9305 4.59297 40.8946C4.32992 40.6625 4.1389 40.3599 4.04253 40.0226C3.94616 39.6853 3.94848 39.3275 4.04922 38.9915L11.7297 13.3446C11.8044 13.0821 11.9397 12.8409 12.1247 12.6402C12.3096 12.4395 12.539 12.285 12.7945 12.1891C14.9645 11.2989 17.2085 10.6014 19.5008 10.1047C19.9413 10.0083 20.4019 10.0774 20.7947 10.2988C21.1875 10.5203 21.485 10.8787 21.6305 11.3055L23.4203 16.7204C27.3437 16.1766 31.3234 16.1766 35.2469 16.7204L37.0367 11.3055C37.1822 10.8787 37.4797 10.5203 37.8725 10.2988C38.2653 10.0774 38.7259 10.0083 39.1664 10.1047C41.4587 10.6014 43.7027 11.2989 45.8727 12.1891C46.1282 12.285 46.3576 12.4395 46.5425 12.6402C46.7275 12.8409 46.8628 13.0821 46.9375 13.3446L54.618 38.9915C54.7187 39.3275 54.721 39.6853 54.6247 40.0226C54.5283 40.3599 54.3373 40.6625 54.0742 40.8946C50.5852 43.9305 45.782 46.2868 40.2313 47.6462C39.8338 47.7491 39.4128 47.7105 39.0407 47.5368C38.6686 47.3632 38.3686 47.0654 38.1922 46.6946L35.4508 41.2571C33.4242 41.5421 31.3802 41.6859 29.3336 41.6876C27.287 41.6859 25.243 41.5421 23.2164 41.2571Z" fill="white" fill-opacity="0.2"/>
</g>
<path fill-rule="evenodd" clip-rule="evenodd" d="M24.8022 32.625C24.8022 34.1265 23.585 35.3438 22.0835 35.3438C20.582 35.3438 19.3647 34.1265 19.3647 32.625C19.3647 31.1235 20.582 29.9062 22.0835 29.9062C23.585 29.9062 24.8022 31.1235 24.8022 32.625ZM39.3022 32.625C39.3022 34.1265 38.085 35.3438 36.5835 35.3438C35.082 35.3438 33.8647 34.1265 33.8647 32.625C33.8647 31.1235 35.082 29.9062 36.5835 29.9062C38.085 29.9062 39.3022 31.1235 39.3022 32.625Z" fill="#4B465C"/>
<path fill-rule="evenodd" clip-rule="evenodd" d="M24.8022 32.625C24.8022 34.1265 23.585 35.3438 22.0835 35.3438C20.582 35.3438 19.3647 34.1265 19.3647 32.625C19.3647 31.1235 20.582 29.9062 22.0835 29.9062C23.585 29.9062 24.8022 31.1235 24.8022 32.625ZM39.3022 32.625C39.3022 34.1265 38.085 35.3438 36.5835 35.3438C35.082 35.3438 33.8647 34.1265 33.8647 32.625C33.8647 31.1235 35.082 29.9062 36.5835 29.9062C38.085 29.9062 39.3022 31.1235 39.3022 32.625Z" fill="white" fill-opacity="0.2"/>
<path d="M17.1898 18.1251C21.119 16.8936 25.2161 16.2821 29.3336 16.3126C33.4511 16.2821 37.5482 16.8936 41.4773 18.1251M41.4773 39.8751C37.5482 41.1065 33.4511 41.718 29.3336 41.6876C25.2161 41.718 21.119 41.1065 17.1898 39.8751M35.4508 41.2571L38.1922 46.6946C38.3686 47.0654 38.6686 47.3632 39.0407 47.5368C39.4128 47.7105 39.8338 47.7491 40.2313 47.6462C45.782 46.2868 50.5852 43.9305 54.0742 40.8946C54.3373 40.6625 54.5283 40.3599 54.6247 40.0226C54.721 39.6853 54.7187 39.3275 54.618 38.9915L46.9375 13.3446C46.8628 13.0821 46.7275 12.8409 46.5425 12.6402C46.3576 12.4395 46.1282 12.285 45.8727 12.1891C43.7027 11.2989 41.4587 10.6014 39.1664 10.1047C38.7259 10.0083 38.2653 10.0774 37.8725 10.2988C37.4797 10.5203 37.1822 10.8787 37.0367 11.3055L35.2469 16.7204M23.2164 41.2571L20.475 46.6946C20.2986 47.0654 19.9986 47.3632 19.6265 47.5368C19.2544 47.7105 18.8334 47.7491 18.4359 47.6462C12.8852 46.2868 8.08203 43.9305 4.59297 40.8946C4.32992 40.6625 4.1389 40.3599 4.04253 40.0226C3.94616 39.6853 3.94848 39.3275 4.04922 38.9915L11.7297 13.3446C11.8044 13.0821 11.9397 12.8409 12.1247 12.6402C12.3096 12.4395 12.539 12.285 12.7945 12.1891C14.9645 11.2989 17.2085 10.6014 19.5008 10.1047C19.9413 10.0083 20.4019 10.0774 20.7947 10.2988C21.1875 10.5203 21.485 10.8787 21.6305 11.3055L23.4203 16.7204" stroke="#4B465C" stroke-width="2" stroke-linecap="round" stroke-linejoin="round"/>
<path d="M17.1898 18.1251C21.119 16.8936 25.2161 16.2821 29.3336 16.3126C33.4511 16.2821 37.5482 16.8936 41.4773 18.1251M41.4773 39.8751C37.5482 41.1065 33.4511 41.718 29.3336 41.6876C25.2161 41.718 21.119 41.1065 17.1898 39.8751M35.4508 41.2571L38.1922 46.6946C38.3686 47.0654 38.6686 47.3632 39.0407 47.5368C39.4128 47.7105 39.8338 47.7491 40.2313 47.6462C45.782 46.2868 50.5852 43.9305 54.0742 40.8946C54.3373 40.6625 54.5283 40.3599 54.6247 40.0226C54.721 39.6853 54.7187 39.3275 54.618 38.9915L46.9375 13.3446C46.8628 13.0821 46.7275 12.8409 46.5425 12.6402C46.3576 12.4395 46.1282 12.285 45.8727 12.1891C43.7027 11.2989 41.4587 10.6014 39.1664 10.1047C38.7259 10.0083 38.2653 10.0774 37.8725 10.2988C37.4797 10.5203 37.1822 10.8787 37.0367 11.3055L35.2469 16.7204M23.2164 41.2571L20.475 46.6946C20.2986 47.0654 19.9986 47.3632 19.6265 47.5368C19.2544 47.7105 18.8334 47.7491 18.4359 47.6462C12.8852 46.2868 8.08203 43.9305 4.59297 40.8946C4.32992 40.6625 4.1389 40.3599 4.04253 40.0226C3.94616 39.6853 3.94848 39.3275 4.04922 38.9915L11.7297 13.3446C11.8044 13.0821 11.9397 12.8409 12.1247 12.6402C12.3096 12.4395 12.539 12.285 12.7945 12.1891C14.9645 11.2989 17.2085 10.6014 19.5008 10.1047C19.9413 10.0083 20.4019 10.0774 20.7947 10.2988C21.1875 10.5203 21.485 10.8787 21.6305 11.3055L23.4203 16.7204" stroke="white" stroke-opacity="0.2" stroke-width="2" stroke-linecap="round" stroke-linejoin="round"/>
</svg>
