<svg width="58" height="58" viewBox="0 0 58 58" fill="none" xmlns="http://www.w3.org/2000/svg">
<path fill-rule="evenodd" clip-rule="evenodd" d="M32.2689 8.56722C31.7876 9.05354 31.3688 9.84814 31.029 10.8704C30.6946 11.8767 30.4652 13.0152 30.31 14.1032C30.1553 15.1872 30.0776 16.197 30.0386 16.9371C30.0358 16.991 30.0332 17.0434 30.0307 17.0943C30.0816 17.0918 30.134 17.0892 30.1879 17.0864C30.928 17.0475 31.9378 16.9697 33.0218 16.815C34.1098 16.6598 35.2483 16.4304 36.2546 16.096C37.2769 15.7562 38.0715 15.3374 38.5578 14.8561C39.3907 14.0223 39.8587 12.8919 39.8587 11.7133C39.8587 10.5339 39.3901 9.4028 38.5562 8.56883C37.7222 7.73487 36.5911 7.26636 35.4117 7.26636C34.2331 7.26636 33.1027 7.73427 32.2689 8.56722ZM39.2633 15.5649L39.9704 16.272C41.1794 15.0629 41.8587 13.4231 41.8587 11.7133C41.8587 10.0035 41.1794 8.36365 39.9704 7.15462C38.7614 5.94559 37.1216 5.26636 35.4117 5.26636C33.7019 5.26636 32.0621 5.94559 30.853 7.15461L30.8499 7.15774C30.0518 7.96296 29.5111 9.09639 29.1311 10.2396C29.0855 10.3767 29.0418 10.5154 28.9999 10.6551C28.958 10.5154 28.9143 10.3767 28.8688 10.2396C28.4888 9.09639 27.9481 7.96296 27.1499 7.15774L27.1468 7.15462C25.9378 5.94559 24.298 5.26636 22.5882 5.26636C20.8783 5.26636 19.2385 5.94559 18.0295 7.15462C16.8205 8.36366 16.1412 10.0035 16.1412 11.7133C16.1412 13.4231 16.8205 15.0629 18.0295 16.272L18.7366 15.5649L18.0326 16.2751C18.3589 16.5985 18.7391 16.8797 19.152 17.125H9.0625C7.5092 17.125 6.25 18.3842 6.25 19.9375V27.1875C6.25 28.7408 7.5092 30 9.0625 30H9.875V45.3125C9.875 46.0584 10.1713 46.7738 10.6988 47.3012C11.2262 47.8287 11.9416 48.125 12.6875 48.125H29H45.3125C46.0584 48.125 46.7738 47.8287 47.3012 47.3012C47.8287 46.7738 48.125 46.0584 48.125 45.3125V30H48.9375C50.4908 30 51.75 28.7408 51.75 27.1875V19.9375C51.75 18.3842 50.4908 17.125 48.9375 17.125H38.8479C39.2608 16.8797 39.641 16.5985 39.9673 16.2751L39.2633 15.5649ZM9.0625 19.125C8.61377 19.125 8.25 19.4888 8.25 19.9375V27.1875C8.25 27.6362 8.61377 28 9.0625 28H10.875H28V19.125H9.0625ZM30 19.125V28H47.125H48.9375C49.3862 28 49.75 27.6362 49.75 27.1875V19.9375C49.75 19.4888 49.3862 19.125 48.9375 19.125H30ZM28 30H11.875V45.3125C11.875 45.528 11.9606 45.7347 12.113 45.887C12.2653 46.0394 12.472 46.125 12.6875 46.125H28V30ZM30 46.125V30H46.125V45.3125C46.125 45.528 46.0394 45.7347 45.887 45.887C45.7347 46.0394 45.528 46.125 45.3125 46.125H30ZM21.7452 16.096C20.723 15.7562 19.9284 15.3374 19.4421 14.8562C18.6091 14.0223 18.1412 12.8919 18.1412 11.7133C18.1412 10.5339 18.6097 9.4028 19.4437 8.56883C20.2777 7.73487 21.4088 7.26636 22.5882 7.26636C23.7668 7.26636 24.8972 7.73428 25.731 8.56725C26.2123 9.05357 26.6311 9.84816 26.9708 10.8704C27.3053 11.8767 27.5346 13.0152 27.6899 14.1032C27.8445 15.1872 27.9223 16.197 27.9613 16.9371C27.9641 16.991 27.9667 17.0434 27.9691 17.0943C27.9183 17.0918 27.8659 17.0892 27.812 17.0864C27.0719 17.0475 26.0621 16.9697 24.978 16.815C23.89 16.6598 22.7516 16.4304 21.7452 16.096Z" fill="#4B465C"/>
<path fill-rule="evenodd" clip-rule="evenodd" d="M32.2689 8.56722C31.7876 9.05354 31.3688 9.84814 31.029 10.8704C30.6946 11.8767 30.4652 13.0152 30.31 14.1032C30.1553 15.1872 30.0776 16.197 30.0386 16.9371C30.0358 16.991 30.0332 17.0434 30.0307 17.0943C30.0816 17.0918 30.134 17.0892 30.1879 17.0864C30.928 17.0475 31.9378 16.9697 33.0218 16.815C34.1098 16.6598 35.2483 16.4304 36.2546 16.096C37.2769 15.7562 38.0715 15.3374 38.5578 14.8561C39.3907 14.0223 39.8587 12.8919 39.8587 11.7133C39.8587 10.5339 39.3901 9.4028 38.5562 8.56883C37.7222 7.73487 36.5911 7.26636 35.4117 7.26636C34.2331 7.26636 33.1027 7.73427 32.2689 8.56722ZM39.2633 15.5649L39.9704 16.272C41.1794 15.0629 41.8587 13.4231 41.8587 11.7133C41.8587 10.0035 41.1794 8.36365 39.9704 7.15462C38.7614 5.94559 37.1216 5.26636 35.4117 5.26636C33.7019 5.26636 32.0621 5.94559 30.853 7.15461L30.8499 7.15774C30.0518 7.96296 29.5111 9.09639 29.1311 10.2396C29.0855 10.3767 29.0418 10.5154 28.9999 10.6551C28.958 10.5154 28.9143 10.3767 28.8688 10.2396C28.4888 9.09639 27.9481 7.96296 27.1499 7.15774L27.1468 7.15462C25.9378 5.94559 24.298 5.26636 22.5882 5.26636C20.8783 5.26636 19.2385 5.94559 18.0295 7.15462C16.8205 8.36366 16.1412 10.0035 16.1412 11.7133C16.1412 13.4231 16.8205 15.0629 18.0295 16.272L18.7366 15.5649L18.0326 16.2751C18.3589 16.5985 18.7391 16.8797 19.152 17.125H9.0625C7.5092 17.125 6.25 18.3842 6.25 19.9375V27.1875C6.25 28.7408 7.5092 30 9.0625 30H9.875V45.3125C9.875 46.0584 10.1713 46.7738 10.6988 47.3012C11.2262 47.8287 11.9416 48.125 12.6875 48.125H29H45.3125C46.0584 48.125 46.7738 47.8287 47.3012 47.3012C47.8287 46.7738 48.125 46.0584 48.125 45.3125V30H48.9375C50.4908 30 51.75 28.7408 51.75 27.1875V19.9375C51.75 18.3842 50.4908 17.125 48.9375 17.125H38.8479C39.2608 16.8797 39.641 16.5985 39.9673 16.2751L39.2633 15.5649ZM9.0625 19.125C8.61377 19.125 8.25 19.4888 8.25 19.9375V27.1875C8.25 27.6362 8.61377 28 9.0625 28H10.875H28V19.125H9.0625ZM30 19.125V28H47.125H48.9375C49.3862 28 49.75 27.6362 49.75 27.1875V19.9375C49.75 19.4888 49.3862 19.125 48.9375 19.125H30ZM28 30H11.875V45.3125C11.875 45.528 11.9606 45.7347 12.113 45.887C12.2653 46.0394 12.472 46.125 12.6875 46.125H28V30ZM30 46.125V30H46.125V45.3125C46.125 45.528 46.0394 45.7347 45.887 45.887C45.7347 46.0394 45.528 46.125 45.3125 46.125H30ZM21.7452 16.096C20.723 15.7562 19.9284 15.3374 19.4421 14.8562C18.6091 14.0223 18.1412 12.8919 18.1412 11.7133C18.1412 10.5339 18.6097 9.4028 19.4437 8.56883C20.2777 7.73487 21.4088 7.26636 22.5882 7.26636C23.7668 7.26636 24.8972 7.73428 25.731 8.56725C26.2123 9.05357 26.6311 9.84816 26.9708 10.8704C27.3053 11.8767 27.5346 13.0152 27.6899 14.1032C27.8445 15.1872 27.9223 16.197 27.9613 16.9371C27.9641 16.991 27.9667 17.0434 27.9691 17.0943C27.9183 17.0918 27.8659 17.0892 27.812 17.0864C27.0719 17.0475 26.0621 16.9697 24.978 16.815C23.89 16.6598 22.7516 16.4304 21.7452 16.096Z" fill="white" fill-opacity="0.2"/>
<g opacity="0.2">
<path d="M47.125 29V45.3125C47.125 45.7932 46.934 46.2542 46.5941 46.5941C46.2542 46.934 45.7932 47.125 45.3125 47.125H12.6875C12.2068 47.125 11.7458 46.934 11.4059 46.5941C11.066 46.2542 10.875 45.7932 10.875 45.3125V29H47.125Z" fill="#4B465C"/>
<path d="M47.125 29V45.3125C47.125 45.7932 46.934 46.2542 46.5941 46.5941C46.2542 46.934 45.7932 47.125 45.3125 47.125H12.6875C12.2068 47.125 11.7458 46.934 11.4059 46.5941C11.066 46.2542 10.875 45.7932 10.875 45.3125V29H47.125Z" fill="white" fill-opacity="0.2"/>
</g>
</svg>
