<svg width="59" height="58" viewBox="0 0 59 58" fill="none" xmlns="http://www.w3.org/2000/svg">
<g opacity="0.2">
<path d="M50.9702 12.6875H7.69678C6.6332 12.6875 5.771 13.5497 5.771 14.6133V43.3867C5.771 44.4503 6.6332 45.3125 7.69678 45.3125H50.9702C52.0338 45.3125 52.896 44.4503 52.896 43.3867V14.6133C52.896 13.5497 52.0338 12.6875 50.9702 12.6875Z" fill="#4B465C"/>
<path d="M50.9702 12.6875H7.69678C6.6332 12.6875 5.771 13.5497 5.771 14.6133V43.3867C5.771 44.4503 6.6332 45.3125 7.69678 45.3125H50.9702C52.0338 45.3125 52.896 44.4503 52.896 43.3867V14.6133C52.896 13.5497 52.0338 12.6875 50.9702 12.6875Z" fill="white" fill-opacity="0.2"/>
</g>
<path fill-rule="evenodd" clip-rule="evenodd" d="M7.021 14.6133C7.021 14.2401 7.32355 13.9375 7.69678 13.9375H50.9702C51.3434 13.9375 51.646 14.2401 51.646 14.6133V43.3867C51.646 43.7599 51.3434 44.0625 50.9702 44.0625H7.69678C7.32355 44.0625 7.021 43.7599 7.021 43.3867V14.6133ZM7.69678 11.4375C5.94284 11.4375 4.521 12.8593 4.521 14.6133V43.3867C4.521 45.1407 5.94284 46.5625 7.69678 46.5625H50.9702C52.7242 46.5625 54.146 45.1407 54.146 43.3867V14.6133C54.146 12.8593 52.7242 11.4375 50.9702 11.4375H7.69678ZM13.021 20.75C12.4687 20.75 12.021 21.1977 12.021 21.75C12.021 22.3023 12.4687 22.75 13.021 22.75H45.646C46.1983 22.75 46.646 22.3023 46.646 21.75C46.646 21.1977 46.1983 20.75 45.646 20.75H13.021ZM13.021 28C12.4687 28 12.021 28.4477 12.021 29C12.021 29.5523 12.4687 30 13.021 30H45.646C46.1983 30 46.646 29.5523 46.646 29C46.646 28.4477 46.1983 28 45.646 28H13.021ZM12.021 36.25C12.021 35.6977 12.4687 35.25 13.021 35.25H14.8335C15.3858 35.25 15.8335 35.6977 15.8335 36.25C15.8335 36.8023 15.3858 37.25 14.8335 37.25H13.021C12.4687 37.25 12.021 36.8023 12.021 36.25ZM22.0835 35.25C21.5312 35.25 21.0835 35.6977 21.0835 36.25C21.0835 36.8023 21.5312 37.25 22.0835 37.25H36.5835C37.1358 37.25 37.5835 36.8023 37.5835 36.25C37.5835 35.6977 37.1358 35.25 36.5835 35.25H22.0835ZM42.8335 36.25C42.8335 35.6977 43.2812 35.25 43.8335 35.25H45.646C46.1983 35.25 46.646 35.6977 46.646 36.25C46.646 36.8023 46.1983 37.25 45.646 37.25H43.8335C43.2812 37.25 42.8335 36.8023 42.8335 36.25Z" fill="#4B465C"/>
<path fill-rule="evenodd" clip-rule="evenodd" d="M7.021 14.6133C7.021 14.2401 7.32355 13.9375 7.69678 13.9375H50.9702C51.3434 13.9375 51.646 14.2401 51.646 14.6133V43.3867C51.646 43.7599 51.3434 44.0625 50.9702 44.0625H7.69678C7.32355 44.0625 7.021 43.7599 7.021 43.3867V14.6133ZM7.69678 11.4375C5.94284 11.4375 4.521 12.8593 4.521 14.6133V43.3867C4.521 45.1407 5.94284 46.5625 7.69678 46.5625H50.9702C52.7242 46.5625 54.146 45.1407 54.146 43.3867V14.6133C54.146 12.8593 52.7242 11.4375 50.9702 11.4375H7.69678ZM13.021 20.75C12.4687 20.75 12.021 21.1977 12.021 21.75C12.021 22.3023 12.4687 22.75 13.021 22.75H45.646C46.1983 22.75 46.646 22.3023 46.646 21.75C46.646 21.1977 46.1983 20.75 45.646 20.75H13.021ZM13.021 28C12.4687 28 12.021 28.4477 12.021 29C12.021 29.5523 12.4687 30 13.021 30H45.646C46.1983 30 46.646 29.5523 46.646 29C46.646 28.4477 46.1983 28 45.646 28H13.021ZM12.021 36.25C12.021 35.6977 12.4687 35.25 13.021 35.25H14.8335C15.3858 35.25 15.8335 35.6977 15.8335 36.25C15.8335 36.8023 15.3858 37.25 14.8335 37.25H13.021C12.4687 37.25 12.021 36.8023 12.021 36.25ZM22.0835 35.25C21.5312 35.25 21.0835 35.6977 21.0835 36.25C21.0835 36.8023 21.5312 37.25 22.0835 37.25H36.5835C37.1358 37.25 37.5835 36.8023 37.5835 36.25C37.5835 35.6977 37.1358 35.25 36.5835 35.25H22.0835ZM42.8335 36.25C42.8335 35.6977 43.2812 35.25 43.8335 35.25H45.646C46.1983 35.25 46.646 35.6977 46.646 36.25C46.646 36.8023 46.1983 37.25 45.646 37.25H43.8335C43.2812 37.25 42.8335 36.8023 42.8335 36.25Z" fill="white" fill-opacity="0.2"/>
</svg>
