<svg width="59" height="58" viewBox="0 0 59 58" fill="none" xmlns="http://www.w3.org/2000/svg">
<g opacity="0.2">
<path d="M9.72925 39.875V16.3125C9.72925 15.3511 10.1112 14.4291 10.791 13.7492C11.4708 13.0694 12.3928 12.6875 13.3542 12.6875H45.9792C46.9407 12.6875 47.8627 13.0694 48.5425 13.7492C49.2223 14.4291 49.6042 15.3511 49.6042 16.3125V39.875H9.72925Z" fill="#4B465C"/>
<path d="M9.72925 39.875V16.3125C9.72925 15.3511 10.1112 14.4291 10.791 13.7492C11.4708 13.0694 12.3928 12.6875 13.3542 12.6875H45.9792C46.9407 12.6875 47.8627 13.0694 48.5425 13.7492C49.2223 14.4291 49.6042 15.3511 49.6042 16.3125V39.875H9.72925Z" fill="white" fill-opacity="0.2"/>
</g>
<path d="M8.72925 39.875C8.72925 40.4273 9.17696 40.875 9.72925 40.875C10.2815 40.875 10.7292 40.4273 10.7292 39.875H8.72925ZM13.3542 12.6875V11.6875V12.6875ZM45.9792 12.6875V11.6875V12.6875ZM48.6042 39.875C48.6042 40.4273 49.052 40.875 49.6042 40.875C50.1565 40.875 50.6042 40.4273 50.6042 39.875H48.6042ZM6.10425 39.875V38.875C5.55196 38.875 5.10425 39.3227 5.10425 39.875H6.10425ZM53.2292 39.875H54.2292C54.2292 39.3227 53.7815 38.875 53.2292 38.875V39.875ZM6.10425 43.5H5.10425H6.10425ZM33.2917 20.9375C33.844 20.9375 34.2917 20.4898 34.2917 19.9375C34.2917 19.3852 33.844 18.9375 33.2917 18.9375V20.9375ZM26.0417 18.9375C25.4895 18.9375 25.0417 19.3852 25.0417 19.9375C25.0417 20.4898 25.4895 20.9375 26.0417 20.9375V18.9375ZM10.7292 39.875V16.3125H8.72925V39.875H10.7292ZM10.7292 16.3125C10.7292 15.6163 11.0058 14.9486 11.4981 14.4563L10.0839 13.0421C9.21652 13.9095 8.72925 15.0859 8.72925 16.3125H10.7292ZM11.4981 14.4563C11.9904 13.9641 12.6581 13.6875 13.3542 13.6875L13.3542 11.6875C12.1276 11.6875 10.9512 12.1748 10.0839 13.0421L11.4981 14.4563ZM13.3542 13.6875H45.9792V11.6875H13.3542V13.6875ZM45.9792 13.6875C46.6754 13.6875 47.3431 13.9641 47.8354 14.4563L49.2496 13.0421C48.3823 12.1748 47.2059 11.6875 45.9792 11.6875V13.6875ZM47.8354 14.4563C48.3277 14.9486 48.6042 15.6163 48.6042 16.3125H50.6042C50.6042 15.0859 50.117 13.9095 49.2496 13.0421L47.8354 14.4563ZM48.6042 16.3125V39.875H50.6042V16.3125H48.6042ZM6.10425 40.875H53.2292V38.875H6.10425V40.875ZM52.2292 39.875V43.5H54.2292V39.875H52.2292ZM52.2292 43.5C52.2292 44.1962 51.9527 44.8639 51.4604 45.3562L52.8746 46.7704C53.742 45.903 54.2292 44.7266 54.2292 43.5H52.2292ZM51.4604 45.3562C50.9681 45.8484 50.3004 46.125 49.6042 46.125V48.125C50.8309 48.125 52.0073 47.6377 52.8746 46.7704L51.4604 45.3562ZM49.6042 46.125H9.72925V48.125H49.6042V46.125ZM9.72925 46.125C9.03305 46.125 8.36538 45.8484 7.87309 45.3562L6.45888 46.7704C7.32623 47.6377 8.50262 48.125 9.72925 48.125V46.125ZM7.87309 45.3562C7.38081 44.8639 7.10425 44.1962 7.10425 43.5H5.10425C5.10425 44.7266 5.59152 45.903 6.45888 46.7704L7.87309 45.3562ZM7.10425 43.5V39.875H5.10425V43.5H7.10425ZM33.2917 18.9375H26.0417V20.9375H33.2917V18.9375Z" fill="#4B465C"/>
<path d="M8.72925 39.875C8.72925 40.4273 9.17696 40.875 9.72925 40.875C10.2815 40.875 10.7292 40.4273 10.7292 39.875H8.72925ZM13.3542 12.6875V11.6875V12.6875ZM45.9792 12.6875V11.6875V12.6875ZM48.6042 39.875C48.6042 40.4273 49.052 40.875 49.6042 40.875C50.1565 40.875 50.6042 40.4273 50.6042 39.875H48.6042ZM6.10425 39.875V38.875C5.55196 38.875 5.10425 39.3227 5.10425 39.875H6.10425ZM53.2292 39.875H54.2292C54.2292 39.3227 53.7815 38.875 53.2292 38.875V39.875ZM6.10425 43.5H5.10425H6.10425ZM33.2917 20.9375C33.844 20.9375 34.2917 20.4898 34.2917 19.9375C34.2917 19.3852 33.844 18.9375 33.2917 18.9375V20.9375ZM26.0417 18.9375C25.4895 18.9375 25.0417 19.3852 25.0417 19.9375C25.0417 20.4898 25.4895 20.9375 26.0417 20.9375V18.9375ZM10.7292 39.875V16.3125H8.72925V39.875H10.7292ZM10.7292 16.3125C10.7292 15.6163 11.0058 14.9486 11.4981 14.4563L10.0839 13.0421C9.21652 13.9095 8.72925 15.0859 8.72925 16.3125H10.7292ZM11.4981 14.4563C11.9904 13.9641 12.6581 13.6875 13.3542 13.6875L13.3542 11.6875C12.1276 11.6875 10.9512 12.1748 10.0839 13.0421L11.4981 14.4563ZM13.3542 13.6875H45.9792V11.6875H13.3542V13.6875ZM45.9792 13.6875C46.6754 13.6875 47.3431 13.9641 47.8354 14.4563L49.2496 13.0421C48.3823 12.1748 47.2059 11.6875 45.9792 11.6875V13.6875ZM47.8354 14.4563C48.3277 14.9486 48.6042 15.6163 48.6042 16.3125H50.6042C50.6042 15.0859 50.117 13.9095 49.2496 13.0421L47.8354 14.4563ZM48.6042 16.3125V39.875H50.6042V16.3125H48.6042ZM6.10425 40.875H53.2292V38.875H6.10425V40.875ZM52.2292 39.875V43.5H54.2292V39.875H52.2292ZM52.2292 43.5C52.2292 44.1962 51.9527 44.8639 51.4604 45.3562L52.8746 46.7704C53.742 45.903 54.2292 44.7266 54.2292 43.5H52.2292ZM51.4604 45.3562C50.9681 45.8484 50.3004 46.125 49.6042 46.125V48.125C50.8309 48.125 52.0073 47.6377 52.8746 46.7704L51.4604 45.3562ZM49.6042 46.125H9.72925V48.125H49.6042V46.125ZM9.72925 46.125C9.03305 46.125 8.36538 45.8484 7.87309 45.3562L6.45888 46.7704C7.32623 47.6377 8.50262 48.125 9.72925 48.125V46.125ZM7.87309 45.3562C7.38081 44.8639 7.10425 44.1962 7.10425 43.5H5.10425C5.10425 44.7266 5.59152 45.903 6.45888 46.7704L7.87309 45.3562ZM7.10425 43.5V39.875H5.10425V43.5H7.10425ZM33.2917 18.9375H26.0417V20.9375H33.2917V18.9375Z" fill="white" fill-opacity="0.2"/>
</svg>
