<svg width="58" height="58" viewBox="0 0 58 58" fill="none" xmlns="http://www.w3.org/2000/svg">
<g opacity="0.2">
<path d="M17.8304 37.8359C15.6726 36.1581 13.925 34.0112 12.7199 31.5579C11.5148 29.1045 10.8839 26.4091 10.8749 23.6757C10.8296 13.8429 18.7367 5.66403 28.5695 5.43747C32.375 5.34725 36.1123 6.45746 39.2514 8.61062C42.3904 10.7638 44.7719 13.8506 46.0581 17.4333C47.3442 21.016 47.4698 24.9127 46.4169 28.5707C45.364 32.2288 43.1861 35.4625 40.1921 37.8132C39.5308 38.3245 38.995 38.9802 38.6259 39.7302C38.2568 40.4802 38.0641 41.3047 38.0625 42.1406V43.5C38.0625 43.9807 37.8715 44.4417 37.5316 44.7816C37.1917 45.1215 36.7307 45.3125 36.25 45.3125H21.7499C21.2692 45.3125 20.8082 45.1215 20.4683 44.7816C20.1284 44.4417 19.9374 43.9807 19.9374 43.5V42.1406C19.9318 41.3109 19.7394 40.4932 19.3747 39.748C19.0099 39.0028 18.4821 38.3493 17.8304 37.8359Z" fill="#4B465C"/>
<path d="M17.8304 37.8359C15.6726 36.1581 13.925 34.0112 12.7199 31.5579C11.5148 29.1045 10.8839 26.4091 10.8749 23.6757C10.8296 13.8429 18.7367 5.66403 28.5695 5.43747C32.375 5.34725 36.1123 6.45746 39.2514 8.61062C42.3904 10.7638 44.7719 13.8506 46.0581 17.4333C47.3442 21.016 47.4698 24.9127 46.4169 28.5707C45.364 32.2288 43.1861 35.4625 40.1921 37.8132C39.5308 38.3245 38.995 38.9802 38.6259 39.7302C38.2568 40.4802 38.0641 41.3047 38.0625 42.1406V43.5C38.0625 43.9807 37.8715 44.4417 37.5316 44.7816C37.1917 45.1215 36.7307 45.3125 36.25 45.3125H21.7499C21.2692 45.3125 20.8082 45.1215 20.4683 44.7816C20.1284 44.4417 19.9374 43.9807 19.9374 43.5V42.1406C19.9318 41.3109 19.7394 40.4932 19.3747 39.748C19.0099 39.0028 18.4821 38.3493 17.8304 37.8359Z" fill="white" fill-opacity="0.2"/>
</g>
<path fill-rule="evenodd" clip-rule="evenodd" d="M38.6857 9.43527C35.7198 7.4009 32.1887 6.35195 28.5932 6.43719L28.5925 6.4372C28.3515 6.44275 28.1116 6.45338 27.8731 6.46896L28.5464 4.43773C32.5617 4.34269 36.5049 5.51414 39.817 7.78597C43.1293 10.0579 45.6422 13.3151 46.9993 17.0954C48.3564 20.8758 48.4889 24.9875 47.3779 28.8473C46.2669 32.7072 43.9688 36.1193 40.8097 38.5998L40.8037 38.6045L40.8037 38.6044C40.263 39.0224 39.8249 39.5585 39.5232 40.1717C39.2215 40.7847 39.0639 41.4585 39.0625 42.1416V42.1425V43.5C39.0625 44.2459 38.7661 44.9613 38.2387 45.4887C37.7112 46.0162 36.9959 46.3125 36.25 46.3125H21.75C21.004 46.3125 20.2887 46.0162 19.7612 45.4887C19.2338 44.9613 18.9375 44.2459 18.9375 43.5V42.1441C18.9323 41.4657 18.7748 40.7971 18.4765 40.1877C18.1782 39.5781 17.7466 39.0434 17.2138 38.6231L17.8866 36.5936C18.069 36.7483 18.255 36.8993 18.4442 37.0465L17.8304 37.836L18.4492 37.0504C19.2189 37.6567 19.8421 38.4284 20.2729 39.3084C20.7036 40.1884 20.9307 41.154 20.9374 42.1338L20.9375 42.1406L20.9375 43.5C20.9375 43.7155 21.0231 43.9221 21.1754 44.0745C21.3278 44.2269 21.5345 44.3125 21.75 44.3125H36.25C36.4654 44.3125 36.6721 44.2269 36.8245 44.0745C36.9768 43.9221 37.0625 43.7155 37.0625 43.5V42.1406V42.1387C37.0644 41.1503 37.2923 40.1754 37.7287 39.2886C38.1646 38.4029 38.7969 37.6285 39.5775 37.0244C42.4048 34.8035 44.4614 31.7492 45.4559 28.2941C46.4507 24.8379 46.3321 21.1562 45.1169 17.7712C43.9017 14.3862 41.6516 11.4696 38.6857 9.43527ZM17.8865 36.5936L17.8866 36.5936L27.8731 6.46896L27.8724 6.469L28.5458 4.43775C18.1651 4.67729 9.8275 13.3058 9.87496 23.6797C9.88451 26.5645 10.5504 29.4094 11.8223 31.9987C13.0938 34.5872 14.9375 36.8525 17.2138 38.6231L17.8865 36.5936ZM17.8865 36.5936C16.1041 35.0827 14.6499 33.2189 13.6175 31.117C12.4793 28.7998 11.8834 26.254 11.8749 23.6725L11.8749 23.6711C11.8332 14.6214 18.9246 7.05389 27.8724 6.469L17.8865 36.5936ZM18.9376 52.5625C18.9376 52.0102 19.3853 51.5625 19.9376 51.5625H38.0626C38.6149 51.5625 39.0626 52.0102 39.0626 52.5625C39.0626 53.1148 38.6149 53.5625 38.0626 53.5625H19.9376C19.3853 53.5625 18.9376 53.1148 18.9376 52.5625ZM31.0024 11.8828C30.4579 11.7905 29.9416 12.1571 29.8493 12.7016C29.757 13.2461 30.1236 13.7624 30.6681 13.8547C32.6793 14.1956 34.535 15.1524 35.9792 16.5929C37.4235 18.0334 38.385 19.8867 38.731 21.897C38.8247 22.4413 39.3419 22.8066 39.8862 22.7129C40.4304 22.6192 40.7957 22.102 40.702 21.5577C40.2857 19.1394 39.129 16.9098 37.3916 15.1769C35.6543 13.4439 33.4218 12.293 31.0024 11.8828Z" fill="#4B465C"/>
<path fill-rule="evenodd" clip-rule="evenodd" d="M38.6857 9.43527C35.7198 7.4009 32.1887 6.35195 28.5932 6.43719L28.5925 6.4372C28.3515 6.44275 28.1116 6.45338 27.8731 6.46896L28.5464 4.43773C32.5617 4.34269 36.5049 5.51414 39.817 7.78597C43.1293 10.0579 45.6422 13.3151 46.9993 17.0954C48.3564 20.8758 48.4889 24.9875 47.3779 28.8473C46.2669 32.7072 43.9688 36.1193 40.8097 38.5998L40.8037 38.6045L40.8037 38.6044C40.263 39.0224 39.8249 39.5585 39.5232 40.1717C39.2215 40.7847 39.0639 41.4585 39.0625 42.1416V42.1425V43.5C39.0625 44.2459 38.7661 44.9613 38.2387 45.4887C37.7112 46.0162 36.9959 46.3125 36.25 46.3125H21.75C21.004 46.3125 20.2887 46.0162 19.7612 45.4887C19.2338 44.9613 18.9375 44.2459 18.9375 43.5V42.1441C18.9323 41.4657 18.7748 40.7971 18.4765 40.1877C18.1782 39.5781 17.7466 39.0434 17.2138 38.6231L17.8866 36.5936C18.069 36.7483 18.255 36.8993 18.4442 37.0465L17.8304 37.836L18.4492 37.0504C19.2189 37.6567 19.8421 38.4284 20.2729 39.3084C20.7036 40.1884 20.9307 41.154 20.9374 42.1338L20.9375 42.1406L20.9375 43.5C20.9375 43.7155 21.0231 43.9221 21.1754 44.0745C21.3278 44.2269 21.5345 44.3125 21.75 44.3125H36.25C36.4654 44.3125 36.6721 44.2269 36.8245 44.0745C36.9768 43.9221 37.0625 43.7155 37.0625 43.5V42.1406V42.1387C37.0644 41.1503 37.2923 40.1754 37.7287 39.2886C38.1646 38.4029 38.7969 37.6285 39.5775 37.0244C42.4048 34.8035 44.4614 31.7492 45.4559 28.2941C46.4507 24.8379 46.3321 21.1562 45.1169 17.7712C43.9017 14.3862 41.6516 11.4696 38.6857 9.43527ZM17.8865 36.5936L17.8866 36.5936L27.8731 6.46896L27.8724 6.469L28.5458 4.43775C18.1651 4.67729 9.8275 13.3058 9.87496 23.6797C9.88451 26.5645 10.5504 29.4094 11.8223 31.9987C13.0938 34.5872 14.9375 36.8525 17.2138 38.6231L17.8865 36.5936ZM17.8865 36.5936C16.1041 35.0827 14.6499 33.2189 13.6175 31.117C12.4793 28.7998 11.8834 26.254 11.8749 23.6725L11.8749 23.6711C11.8332 14.6214 18.9246 7.05389 27.8724 6.469L17.8865 36.5936ZM18.9376 52.5625C18.9376 52.0102 19.3853 51.5625 19.9376 51.5625H38.0626C38.6149 51.5625 39.0626 52.0102 39.0626 52.5625C39.0626 53.1148 38.6149 53.5625 38.0626 53.5625H19.9376C19.3853 53.5625 18.9376 53.1148 18.9376 52.5625ZM31.0024 11.8828C30.4579 11.7905 29.9416 12.1571 29.8493 12.7016C29.757 13.2461 30.1236 13.7624 30.6681 13.8547C32.6793 14.1956 34.535 15.1524 35.9792 16.5929C37.4235 18.0334 38.385 19.8867 38.731 21.897C38.8247 22.4413 39.3419 22.8066 39.8862 22.7129C40.4304 22.6192 40.7957 22.102 40.702 21.5577C40.2857 19.1394 39.129 16.9098 37.3916 15.1769C35.6543 13.4439 33.4218 12.293 31.0024 11.8828Z" fill="white" fill-opacity="0.2"/>
</svg>
