<?xml version="1.0" encoding="UTF-8"?>
<svg width="38px" height="38px" viewBox="0 0 38 38" version="1.1" xmlns="http://www.w3.org/2000/svg" xmlns:xlink="http://www.w3.org/1999/xlink">
    <title>paypal</title>
    <g id="⚙️-Layout" stroke="none" stroke-width="1" fill="none" fill-rule="evenodd">
        <g id="Notifications" transform="translate(-902.000000, -321.000000)" fill-rule="nonzero">
            <g id="Notification" transform="translate(882.000000, 60.000000)">
                <g id="List" transform="translate(0.000000, 256.000000)">
                    <g id="paypal" transform="translate(20.000000, 5.000000)">
                        <circle id="Oval" fill-opacity="0.12" fill="#FF4C51" cx="19" cy="19" r="19"></circle>
                        <g transform="translate(9.000000, 8.000000)">
                            <path d="M6.88188,18.94 C6.80479,19.42569 6.38601,19.7832536 5.89424,19.7832536 L2.06249,19.7832536 C1.21575,19.78507 0.52786,19.10013 0.526026601,18.25339 C0.52585,18.16786 0.53282,18.08246 0.54688,17.9981 L3.13672,1.5918 C3.28397,0.67638 4.07281,0.00247 5,0 L11.21387,0 C13.77441,0 15.62207,0.62012 16.70605,1.84277 C17.7527,3.04862 18.15472,4.68467 17.78613,6.23828 C17.76465,6.37305 17.74313,6.50879 17.71094,6.65628 C16.8877,10.87405 14.05566,13.11328 9.52539,13.11328 L7.80664,13.11328 L6.88188,18.94 Z" id="Shape" fill="#FFA2A5"></path>
                            <path d="M18.43652,6.10449 C18.27038,5.91852 18.08783,5.74872 17.89154,5.59649 C17.86963,5.81109 17.83661,6.02545 17.78613,6.23827 C17.76465,6.37304 17.7431,6.50878 17.71093,6.65624 C16.88769,10.87401 14.05566,13.11327 9.52538,13.11327 L7.80664,13.11327 L6.8819,18.94 C6.80481,19.42572 6.38599,19.78326 5.89423,19.78326 L4.72656,19.78326 L4.64453,20.30371 C4.63257,20.37939 4.6264599,20.45593 4.6264599,20.53259 C4.62616,21.34271 5.28265,21.99969 6.09277,22.0000638 L9.32715,22.0000638 C10.19281,22.00732 10.9353,21.38409 11.07819,20.53027 L11.71881,16.49902 L11.72955,16.44439 L12.02838,16.44439 C16.06061,16.44439 18.57916,14.45116 19.31354,10.68163 C19.76788,9.10339 19.44214,7.40308 18.43652,6.10449 Z" id="Path" fill="#FF4C51"></path>
                        </g>
                    </g>
                </g>
            </g>
        </g>
    </g>
</svg>